<svg width="20" height="20" viewBox="0 0 20 20" fill="none" xmlns="http://www.w3.org/2000/svg">
  <path fill-rule="evenodd" clip-rule="evenodd"
    d="M10.12 1.73821C10.3946 1.78266 10.6273 1.97761 10.7158 2.24938L12.2651 7.01736H17.2783L17.3965 7.02721C17.5129 7.04594 17.6244 7.09216 17.7206 7.16214C17.8487 7.25558 17.9444 7.38756 17.9934 7.53838C18.0422 7.68913 18.0422 7.8515 17.9934 8.00227C17.9445 8.15317 17.8487 8.285 17.7206 8.37851L13.6657 11.3244L15.2149 16.0934L15.2425 16.2086C15.2611 16.3255 15.2518 16.4456 15.2149 16.5592C15.1658 16.7105 15.0707 16.8429 14.9421 16.9364C14.8135 17.0298 14.6579 17.0803 14.4989 17.0802C14.3797 17.0801 14.2624 17.0512 14.1571 16.9975L14.0557 16.9355L9.99981 13.9886L5.94393 16.9345L5.94491 16.9355C5.81632 17.029 5.6607 17.0802 5.5017 17.0802C5.34269 17.0802 5.18713 17.0299 5.05849 16.9364C4.92985 16.8429 4.83376 16.7105 4.78468 16.5592C4.73567 16.408 4.73644 16.2445 4.78567 16.0934L6.33297 11.3254L2.27906 8.3795C2.15087 8.28595 2.05516 8.15324 2.00624 8.00227C1.95746 7.8515 1.95741 7.68913 2.00624 7.53838C2.05522 7.38755 2.15095 7.25559 2.27906 7.16214C2.40733 7.06874 2.56261 7.01774 2.72128 7.01736H7.73352L9.28378 2.2484L9.32908 2.13907C9.3828 2.03402 9.46123 1.94214 9.55758 1.87216C9.686 1.77905 9.84119 1.72945 9.99981 1.72935L10.12 1.73821ZM8.99815 8.00326C8.94903 8.15439 8.85287 8.28605 8.72434 8.3795C8.62784 8.44951 8.51599 8.49596 8.39932 8.51443L8.28113 8.52329H5.04076L7.66261 10.4281L7.75519 10.5069C7.92415 10.6771 8.00057 10.9178 7.96399 11.154L7.93641 11.2712L6.93475 14.354L9.55857 12.4492L9.65903 12.3881C9.7643 12.3345 9.88156 12.3064 10.0008 12.3064C10.1595 12.3064 10.3145 12.356 10.443 12.4492L13.0659 14.353L12.0652 11.2712C12.0158 11.1199 12.0152 10.9567 12.0642 10.8053C12.1133 10.654 12.2093 10.5217 12.338 10.4281L14.9608 8.52329H11.7185C11.5597 8.52311 11.4047 8.47282 11.2763 8.3795C11.1799 8.30939 11.1014 8.21775 11.0478 8.11258L11.0025 8.00326L9.99883 4.9185L8.99815 8.00326Z"
    fill="black" fill-opacity="0.4" />
</svg>